<?xml version="1.0" encoding="utf-8"?>
<!-- Generator: Adobe Illustrator 25.2.1, SVG Export Plug-In . SVG Version: 6.00 Build 0)  -->
<svg version="1.1" id="Ebene_1" xmlns="http://www.w3.org/2000/svg" xmlns:xlink="http://www.w3.org/1999/xlink" x="0px" y="0px"
	 viewBox="0 0 177.63 185.53" style="enable-background:new 0 0 177.63 185.53;" xml:space="preserve">
<style type="text/css">
	.st0{fill:#F2F2F2;}
</style>
<g>
	<path class="st0" d="M117.94,115.13V71.45c0-23.39-8.7-47.77-44.39-47.77c-1.32,0-2.63,0.04-3.93,0.11
		c-11.95,4.18-22.55,11.21-30.98,20.3l1.37,3.96c8.2-5.32,19.54-8.7,30.39-8.7c23.89,0,26.54,17.37,26.54,27.02v2.43
		c-11.68-0.05-22.04,0.93-30.95,2.91c-22.84,5.12-34.86,27.91-29.93,48.39c0.29,1.16,0.61,2.32,1,3.46
		c1.02,3.02,2.43,5.95,4.25,8.73c5.42,6.01,12.15,9.7,25.08,10.59c6.13-0.29,11.81-2.11,17.58-4.54c5.95-2.55,11.27-5.87,14.18-9.96
		h0.71l1.7,14.71h19.3C118.42,135.15,117.94,125.25,117.94,115.13z M96.22,110.54c-3.37,9.89-13.04,19.55-28.23,19.55
		c-10.86,0-20.04-6.52-20.04-20.27c0-3.61,0.66-6.75,1.89-9.48c6.39-14.39,28.09-17.23,47.57-16.82v20.27c0,1.38-0.2,2.84-0.52,4.3
		C96.7,108.92,96.49,109.75,96.22,110.54z"/>
</g>
<polygon class="st0" points="123.01,69.65 124.7,87.02 151.05,105.04 128.12,122.24 130.14,142.96 158.93,103.97 "/>
</svg>
